<svg xmlns="http://www.w3.org/2000/svg" xmlns:xlink="http://www.w3.org/1999/xlink" width="500" zoomAndPan="magnify" viewBox="0 0 375 374.999991" height="500" preserveAspectRatio="xMidYMid meet" version="1.0"><defs><g/><clipPath id="a9d30470b1"><path d="M 91.875 60.886719 L 283.125 60.886719 L 283.125 252.136719 L 91.875 252.136719 Z M 91.875 60.886719 " clip-rule="nonzero"/></clipPath><clipPath id="eb3b020ecc"><path d="M 187.5 60.886719 C 134.6875 60.886719 91.875 103.699219 91.875 156.511719 C 91.875 209.324219 134.6875 252.136719 187.5 252.136719 C 240.3125 252.136719 283.125 209.324219 283.125 156.511719 C 283.125 103.699219 240.3125 60.886719 187.5 60.886719 Z M 187.5 60.886719 " clip-rule="nonzero"/></clipPath><clipPath id="f5768defcd"><path d="M 107.242188 133.007812 L 267.742188 133.007812 L 267.742188 259.757812 L 107.242188 259.757812 Z M 107.242188 133.007812 " clip-rule="nonzero"/></clipPath></defs><rect x="-37.5" width="450" fill="#ffffff" y="-37.499999" height="449.999989" fill-opacity="1"/><rect x="-37.5" width="450" fill="#000000" y="-37.499999" height="449.999989" fill-opacity="1"/><g clip-path="url(#a9d30470b1)"><g clip-path="url(#eb3b020ecc)"><path fill="#ffffff" d="M 91.875 60.886719 L 283.125 60.886719 L 283.125 252.136719 L 91.875 252.136719 Z M 91.875 60.886719 " fill-opacity="1" fill-rule="nonzero"/></g></g><g clip-path="url(#f5768defcd)"><path fill="#000000" d="M 250.988281 259.757812 L 124 259.757812 C 114.789062 259.757812 107.289062 252.273438 107.289062 243.078125 L 107.289062 169.699219 C 107.289062 160.503906 114.789062 153.019531 124 153.019531 L 165.964844 153.019531 C 167.402344 153.019531 168.679688 152.105469 169.140625 150.738281 L 172.769531 139.84375 C 174.140625 135.753906 177.960938 133.007812 182.285156 133.007812 L 219.441406 133.007812 C 223.757812 133.007812 227.582031 135.753906 228.949219 139.84375 L 232.585938 150.738281 C 233.035156 152.105469 234.3125 153.019531 235.753906 153.019531 L 250.988281 153.019531 C 260.195312 153.019531 267.695312 160.503906 267.695312 169.699219 L 267.695312 243.078125 C 267.695312 252.273438 260.195312 259.757812 250.988281 259.757812 Z M 124 159.691406 C 118.472656 159.691406 113.972656 164.179688 113.972656 169.699219 L 113.972656 243.078125 C 113.972656 248.597656 118.472656 253.085938 124 253.085938 L 250.988281 253.085938 C 256.515625 253.085938 261.011719 248.597656 261.011719 243.078125 L 261.011719 169.699219 C 261.011719 164.179688 256.515625 159.691406 250.988281 159.691406 L 235.753906 159.691406 C 231.4375 159.691406 227.613281 156.941406 226.246094 152.855469 L 222.609375 141.960938 C 222.152344 140.59375 220.878906 139.679688 219.433594 139.679688 L 182.28125 139.679688 C 180.84375 139.679688 179.566406 140.59375 179.105469 141.960938 L 175.476562 152.855469 C 174.113281 156.941406 170.289062 159.691406 165.964844 159.691406 Z M 124 159.691406 " fill-opacity="1" fill-rule="nonzero"/></g><path fill="#000000" d="M 200.859375 246.414062 C 178.746094 246.414062 160.757812 228.464844 160.757812 206.390625 C 160.757812 184.3125 178.746094 166.363281 200.859375 166.363281 C 222.976562 166.363281 240.960938 184.3125 240.960938 206.390625 C 240.960938 228.464844 222.976562 246.414062 200.859375 246.414062 Z M 200.859375 173.035156 C 182.433594 173.035156 167.441406 187.996094 167.441406 206.390625 C 167.441406 224.78125 182.433594 239.742188 200.859375 239.742188 C 219.285156 239.742188 234.277344 224.78125 234.277344 206.390625 C 234.277344 187.996094 219.285156 173.035156 200.859375 173.035156 Z M 200.859375 173.035156 " fill-opacity="1" fill-rule="nonzero"/><path fill="#000000" d="M 200.859375 233.074219 C 186.117188 233.074219 174.125 221.105469 174.125 206.390625 C 174.125 191.671875 186.117188 179.703125 200.859375 179.703125 C 215.605469 179.703125 227.59375 191.671875 227.59375 206.390625 C 227.59375 221.105469 215.605469 233.074219 200.859375 233.074219 Z M 200.859375 186.375 C 189.804688 186.375 180.808594 195.355469 180.808594 206.390625 C 180.808594 217.421875 189.804688 226.402344 200.859375 226.402344 C 211.914062 226.402344 220.910156 217.421875 220.910156 206.390625 C 220.910156 195.355469 211.914062 186.375 200.859375 186.375 Z M 200.859375 186.375 " fill-opacity="1" fill-rule="nonzero"/><path fill="#000000" d="M 137.367188 146.347656 L 124 146.347656 C 122.15625 146.347656 120.65625 144.855469 120.65625 143.015625 C 120.65625 141.171875 122.15625 139.679688 124 139.679688 L 137.367188 139.679688 C 139.210938 139.679688 140.707031 141.171875 140.707031 143.015625 C 140.707031 144.855469 139.210938 146.347656 137.367188 146.347656 Z M 137.367188 146.347656 " fill-opacity="1" fill-rule="nonzero"/><path fill="#000000" d="M 137.367188 173.035156 L 124 173.035156 C 122.15625 173.035156 120.65625 171.539062 120.65625 169.699219 C 120.65625 167.855469 122.15625 166.363281 124 166.363281 L 137.367188 166.363281 C 139.210938 166.363281 140.707031 167.855469 140.707031 169.699219 C 140.707031 171.539062 139.210938 173.035156 137.367188 173.035156 Z M 137.367188 173.035156 " fill-opacity="1" fill-rule="nonzero"/><g fill="#ffffff" fill-opacity="1"><g transform="translate(86.498348, 283.136348)"><g><path d="M 11.484375 -23.03125 C 14.492188 -23.03125 16.773438 -22.28125 18.328125 -20.78125 C 19.878906 -19.289062 20.65625 -17.332031 20.65625 -14.90625 C 20.65625 -12.476562 19.863281 -10.523438 18.28125 -9.046875 C 16.707031 -7.566406 14.425781 -6.828125 11.4375 -6.828125 L 8.078125 -6.828125 L 8.078125 -1.015625 C 8.078125 -0.617188 7.988281 -0.347656 7.8125 -0.203125 C 7.644531 -0.0664062 7.394531 0 7.0625 0 L 3.609375 0 C 3.304688 0 3.0625 -0.0664062 2.875 -0.203125 C 2.6875 -0.347656 2.59375 -0.617188 2.59375 -1.015625 L 2.59375 -22.015625 C 2.59375 -22.335938 2.660156 -22.585938 2.796875 -22.765625 C 2.941406 -22.941406 3.210938 -23.03125 3.609375 -23.03125 Z M 11.4375 -11.546875 C 12.820312 -11.546875 13.820312 -11.875 14.4375 -12.53125 C 15.050781 -13.1875 15.359375 -13.945312 15.359375 -14.8125 C 15.359375 -15.71875 15.050781 -16.488281 14.4375 -17.125 C 13.820312 -17.769531 12.820312 -18.09375 11.4375 -18.09375 L 8.078125 -18.09375 L 8.078125 -11.546875 Z M 11.4375 -11.546875 "/></g></g></g><g fill="#ffffff" fill-opacity="1"><g transform="translate(108.473384, 283.136348)"><g><path d="M 20.375 -23.03125 C 20.695312 -23.03125 20.945312 -22.957031 21.125 -22.8125 C 21.300781 -22.675781 21.390625 -22.410156 21.390625 -22.015625 L 21.390625 -1.015625 C 21.390625 -0.617188 21.300781 -0.347656 21.125 -0.203125 C 20.945312 -0.0664062 20.695312 0 20.375 0 L 16.90625 0 C 16.601562 0 16.359375 -0.0664062 16.171875 -0.203125 C 15.984375 -0.347656 15.890625 -0.617188 15.890625 -1.015625 L 15.890625 -8.921875 L 8.078125 -8.921875 L 8.078125 -1.015625 C 8.078125 -0.617188 7.988281 -0.347656 7.8125 -0.203125 C 7.644531 -0.0664062 7.394531 0 7.0625 0 L 3.609375 0 C 3.304688 0 3.0625 -0.0664062 2.875 -0.203125 C 2.6875 -0.347656 2.59375 -0.617188 2.59375 -1.015625 L 2.59375 -22.015625 C 2.59375 -22.410156 2.6875 -22.675781 2.875 -22.8125 C 3.0625 -22.957031 3.304688 -23.03125 3.609375 -23.03125 L 7.0625 -23.03125 C 7.394531 -23.03125 7.644531 -22.957031 7.8125 -22.8125 C 7.988281 -22.675781 8.078125 -22.410156 8.078125 -22.015625 L 8.078125 -14.109375 L 15.890625 -14.109375 L 15.890625 -22.015625 C 15.890625 -22.410156 15.984375 -22.675781 16.171875 -22.8125 C 16.359375 -22.957031 16.601562 -23.03125 16.90625 -23.03125 Z M 20.375 -23.03125 "/></g></g></g><g fill="#ffffff" fill-opacity="1"><g transform="translate(132.442975, 283.136348)"><g><path d="M 20.6875 -7.390625 C 20.6875 -6.003906 20.394531 -4.8125 19.8125 -3.8125 C 19.226562 -2.8125 18.46875 -1.988281 17.53125 -1.34375 C 16.601562 -0.707031 15.585938 -0.238281 14.484375 0.0625 C 13.390625 0.375 12.316406 0.53125 11.265625 0.53125 C 10.210938 0.53125 9.144531 0.375 8.0625 0.0625 C 6.976562 -0.238281 5.96875 -0.707031 5.03125 -1.34375 C 4.101562 -1.988281 3.351562 -2.8125 2.78125 -3.8125 C 2.207031 -4.8125 1.921875 -6.003906 1.921875 -7.390625 L 1.921875 -15.640625 C 1.921875 -17.015625 2.207031 -18.203125 2.78125 -19.203125 C 3.351562 -20.210938 4.101562 -21.035156 5.03125 -21.671875 C 5.96875 -22.316406 6.976562 -22.789062 8.0625 -23.09375 C 9.144531 -23.40625 10.210938 -23.5625 11.265625 -23.5625 C 12.316406 -23.5625 13.390625 -23.40625 14.484375 -23.09375 C 15.585938 -22.789062 16.601562 -22.316406 17.53125 -21.671875 C 18.46875 -21.035156 19.226562 -20.210938 19.8125 -19.203125 C 20.394531 -18.203125 20.6875 -17.015625 20.6875 -15.640625 Z M 15.1875 -15.15625 C 15.1875 -16.269531 14.820312 -17.132812 14.09375 -17.75 C 13.375 -18.375 12.429688 -18.6875 11.265625 -18.6875 C 10.128906 -18.6875 9.195312 -18.375 8.46875 -17.75 C 7.75 -17.132812 7.390625 -16.269531 7.390625 -15.15625 L 7.390625 -7.875 C 7.390625 -6.75 7.75 -5.878906 8.46875 -5.265625 C 9.195312 -4.648438 10.128906 -4.34375 11.265625 -4.34375 C 12.429688 -4.34375 13.375 -4.648438 14.09375 -5.265625 C 14.820312 -5.878906 15.1875 -6.75 15.1875 -7.875 Z M 15.1875 -15.15625 "/></g></g></g><g fill="#ffffff" fill-opacity="1"><g transform="translate(155.012874, 283.136348)"><g><path d="M 18.171875 -23.03125 C 18.566406 -23.03125 18.832031 -22.941406 18.96875 -22.765625 C 19.113281 -22.585938 19.1875 -22.335938 19.1875 -22.015625 L 19.1875 -19.109375 C 19.1875 -18.804688 19.113281 -18.5625 18.96875 -18.375 C 18.832031 -18.1875 18.566406 -18.09375 18.171875 -18.09375 L 12.8125 -18.09375 L 12.8125 -1.015625 C 12.8125 -0.617188 12.722656 -0.347656 12.546875 -0.203125 C 12.367188 -0.0664062 12.117188 0 11.796875 0 L 8.328125 0 C 8.023438 0 7.78125 -0.0664062 7.59375 -0.203125 C 7.40625 -0.347656 7.3125 -0.617188 7.3125 -1.015625 L 7.3125 -18.09375 L 1.921875 -18.09375 C 1.523438 -18.09375 1.253906 -18.1875 1.109375 -18.375 C 0.972656 -18.5625 0.90625 -18.804688 0.90625 -19.109375 L 0.90625 -22.015625 C 0.90625 -22.335938 0.972656 -22.585938 1.109375 -22.765625 C 1.253906 -22.941406 1.523438 -23.03125 1.921875 -23.03125 Z M 18.171875 -23.03125 "/></g></g></g><g fill="#ffffff" fill-opacity="1"><g transform="translate(175.098341, 283.136348)"><g><path d="M 20.6875 -7.390625 C 20.6875 -6.003906 20.394531 -4.8125 19.8125 -3.8125 C 19.226562 -2.8125 18.46875 -1.988281 17.53125 -1.34375 C 16.601562 -0.707031 15.585938 -0.238281 14.484375 0.0625 C 13.390625 0.375 12.316406 0.53125 11.265625 0.53125 C 10.210938 0.53125 9.144531 0.375 8.0625 0.0625 C 6.976562 -0.238281 5.96875 -0.707031 5.03125 -1.34375 C 4.101562 -1.988281 3.351562 -2.8125 2.78125 -3.8125 C 2.207031 -4.8125 1.921875 -6.003906 1.921875 -7.390625 L 1.921875 -15.640625 C 1.921875 -17.015625 2.207031 -18.203125 2.78125 -19.203125 C 3.351562 -20.210938 4.101562 -21.035156 5.03125 -21.671875 C 5.96875 -22.316406 6.976562 -22.789062 8.0625 -23.09375 C 9.144531 -23.40625 10.210938 -23.5625 11.265625 -23.5625 C 12.316406 -23.5625 13.390625 -23.40625 14.484375 -23.09375 C 15.585938 -22.789062 16.601562 -22.316406 17.53125 -21.671875 C 18.46875 -21.035156 19.226562 -20.210938 19.8125 -19.203125 C 20.394531 -18.203125 20.6875 -17.015625 20.6875 -15.640625 Z M 15.1875 -15.15625 C 15.1875 -16.269531 14.820312 -17.132812 14.09375 -17.75 C 13.375 -18.375 12.429688 -18.6875 11.265625 -18.6875 C 10.128906 -18.6875 9.195312 -18.375 8.46875 -17.75 C 7.75 -17.132812 7.390625 -16.269531 7.390625 -15.15625 L 7.390625 -7.875 C 7.390625 -6.75 7.75 -5.878906 8.46875 -5.265625 C 9.195312 -4.648438 10.128906 -4.34375 11.265625 -4.34375 C 12.429688 -4.34375 13.375 -4.648438 14.09375 -5.265625 C 14.820312 -5.878906 15.1875 -6.75 15.1875 -7.875 Z M 15.1875 -15.15625 "/></g></g></g><g fill="#ffffff" fill-opacity="1"><g transform="translate(197.66824, 283.136348)"><g><path d="M 19.703125 -12.84375 C 20.097656 -12.84375 20.363281 -12.753906 20.5 -12.578125 C 20.644531 -12.398438 20.71875 -12.148438 20.71875 -11.828125 L 20.71875 -6.75 C 20.644531 -5.488281 20.304688 -4.394531 19.703125 -3.46875 C 19.097656 -2.550781 18.328125 -1.800781 17.390625 -1.21875 C 16.460938 -0.632812 15.46875 -0.195312 14.40625 0.09375 C 13.34375 0.382812 12.3125 0.53125 11.3125 0.53125 C 10.28125 0.53125 9.210938 0.390625 8.109375 0.109375 C 7.015625 -0.171875 5.992188 -0.609375 5.046875 -1.203125 C 4.109375 -1.796875 3.347656 -2.578125 2.765625 -3.546875 C 2.179688 -4.515625 1.890625 -5.6875 1.890625 -7.0625 L 1.890625 -15.6875 C 1.890625 -17.0625 2.179688 -18.25 2.765625 -19.25 C 3.347656 -20.25 4.109375 -21.0625 5.046875 -21.6875 C 5.992188 -22.320312 7.015625 -22.789062 8.109375 -23.09375 C 9.210938 -23.40625 10.28125 -23.5625 11.3125 -23.5625 C 12.40625 -23.5625 13.503906 -23.398438 14.609375 -23.078125 C 15.722656 -22.765625 16.738281 -22.304688 17.65625 -21.703125 C 18.582031 -21.097656 19.320312 -20.34375 19.875 -19.4375 C 20.4375 -18.539062 20.71875 -17.507812 20.71875 -16.34375 C 20.71875 -15.925781 20.644531 -15.65625 20.5 -15.53125 C 20.363281 -15.414062 20.097656 -15.359375 19.703125 -15.359375 L 16.3125 -15.359375 C 15.820312 -15.359375 15.550781 -15.5 15.5 -15.78125 C 15.457031 -16.0625 15.390625 -16.320312 15.296875 -16.5625 C 15.109375 -17.09375 14.6875 -17.578125 14.03125 -18.015625 C 13.382812 -18.460938 12.476562 -18.6875 11.3125 -18.6875 C 10.164062 -18.6875 9.234375 -18.335938 8.515625 -17.640625 C 7.804688 -16.941406 7.453125 -16.03125 7.453125 -14.90625 L 7.453125 -7.875 C 7.453125 -6.75 7.804688 -5.878906 8.515625 -5.265625 C 9.234375 -4.648438 10.164062 -4.34375 11.3125 -4.34375 C 12.445312 -4.34375 13.375 -4.628906 14.09375 -5.203125 C 14.820312 -5.773438 15.1875 -6.734375 15.1875 -8.078125 L 12.046875 -8.078125 C 11.640625 -8.078125 11.367188 -8.171875 11.234375 -8.359375 C 11.097656 -8.546875 11.03125 -8.789062 11.03125 -9.09375 L 11.03125 -11.828125 C 11.03125 -12.148438 11.097656 -12.398438 11.234375 -12.578125 C 11.367188 -12.753906 11.640625 -12.84375 12.046875 -12.84375 Z M 19.703125 -12.84375 "/></g></g></g><g fill="#ffffff" fill-opacity="1"><g transform="translate(220.273135, 283.136348)"><g><path d="M 21.453125 -1.125 C 21.617188 -0.882812 21.65625 -0.632812 21.5625 -0.375 C 21.46875 -0.125 21.257812 0 20.9375 0 L 16.796875 0 C 16.378906 0 16.046875 -0.078125 15.796875 -0.234375 C 15.554688 -0.398438 15.304688 -0.671875 15.046875 -1.046875 L 11.265625 -6.6875 C 11.109375 -6.894531 11.003906 -7.117188 10.953125 -7.359375 C 10.910156 -7.609375 10.890625 -7.976562 10.890625 -8.46875 L 10.890625 -11.265625 C 10.890625 -11.597656 10.957031 -11.847656 11.09375 -12.015625 C 11.238281 -12.191406 11.507812 -12.28125 11.90625 -12.28125 L 12.59375 -12.28125 C 13.457031 -12.28125 14.226562 -12.546875 14.90625 -13.078125 C 15.582031 -13.617188 15.921875 -14.300781 15.921875 -15.125 C 15.921875 -16.03125 15.609375 -16.75 14.984375 -17.28125 C 14.367188 -17.820312 13.609375 -18.09375 12.703125 -18.09375 L 8.046875 -18.09375 L 8.046875 -1.015625 C 8.046875 -0.617188 7.957031 -0.347656 7.78125 -0.203125 C 7.613281 -0.0664062 7.363281 0 7.03125 0 L 3.5625 0 C 3.257812 0 3.019531 -0.0664062 2.84375 -0.203125 C 2.675781 -0.347656 2.59375 -0.617188 2.59375 -1.015625 L 2.59375 -21.984375 C 2.59375 -22.304688 2.65625 -22.554688 2.78125 -22.734375 C 2.90625 -22.910156 3.164062 -23 3.5625 -23 L 12.390625 -23 C 13.671875 -23 14.726562 -22.914062 15.5625 -22.75 C 16.40625 -22.582031 17.125 -22.328125 17.71875 -21.984375 C 18.320312 -21.648438 18.867188 -21.238281 19.359375 -20.75 C 20.003906 -20.125 20.503906 -19.332031 20.859375 -18.375 C 21.210938 -17.414062 21.390625 -16.378906 21.390625 -15.265625 C 21.390625 -14.046875 21.128906 -12.957031 20.609375 -12 C 20.097656 -11.039062 19.46875 -10.25 18.71875 -9.625 C 17.976562 -9 17.242188 -8.554688 16.515625 -8.296875 Z M 21.453125 -1.125 "/></g></g></g><g fill="#ffffff" fill-opacity="1"><g transform="translate(243.577871, 283.136348)"><g><path d="M 22.40625 -0.984375 C 22.5 -0.773438 22.519531 -0.554688 22.46875 -0.328125 C 22.425781 -0.109375 22.207031 0 21.8125 0 L 18.125 0 C 17.75 0 17.46875 -0.0664062 17.28125 -0.203125 C 17.101562 -0.347656 16.941406 -0.628906 16.796875 -1.046875 L 15.8125 -3.8125 L 7.25 -3.8125 L 6.265625 -1.046875 C 6.128906 -0.628906 5.972656 -0.347656 5.796875 -0.203125 C 5.617188 -0.0664062 5.332031 0 4.9375 0 L 1.265625 0 C 0.890625 0 0.671875 -0.109375 0.609375 -0.328125 C 0.554688 -0.554688 0.578125 -0.773438 0.671875 -0.984375 L 8.4375 -21.9375 C 8.570312 -22.3125 8.75 -22.585938 8.96875 -22.765625 C 9.195312 -22.941406 9.5 -23.03125 9.875 -23.03125 L 13.234375 -23.03125 C 13.628906 -23.03125 13.925781 -22.941406 14.125 -22.765625 C 14.320312 -22.585938 14.503906 -22.3125 14.671875 -21.9375 Z M 11.546875 -16.453125 L 8.921875 -8.71875 L 14.171875 -8.71875 Z M 11.546875 -16.453125 "/></g></g></g><g fill="#ffffff" fill-opacity="1"><g transform="translate(266.497696, 283.136348)"><g><path d="M 11.484375 -23.03125 C 14.492188 -23.03125 16.773438 -22.28125 18.328125 -20.78125 C 19.878906 -19.289062 20.65625 -17.332031 20.65625 -14.90625 C 20.65625 -12.476562 19.863281 -10.523438 18.28125 -9.046875 C 16.707031 -7.566406 14.425781 -6.828125 11.4375 -6.828125 L 8.078125 -6.828125 L 8.078125 -1.015625 C 8.078125 -0.617188 7.988281 -0.347656 7.8125 -0.203125 C 7.644531 -0.0664062 7.394531 0 7.0625 0 L 3.609375 0 C 3.304688 0 3.0625 -0.0664062 2.875 -0.203125 C 2.6875 -0.347656 2.59375 -0.617188 2.59375 -1.015625 L 2.59375 -22.015625 C 2.59375 -22.335938 2.660156 -22.585938 2.796875 -22.765625 C 2.941406 -22.941406 3.210938 -23.03125 3.609375 -23.03125 Z M 11.4375 -11.546875 C 12.820312 -11.546875 13.820312 -11.875 14.4375 -12.53125 C 15.050781 -13.1875 15.359375 -13.945312 15.359375 -14.8125 C 15.359375 -15.71875 15.050781 -16.488281 14.4375 -17.125 C 13.820312 -17.769531 12.820312 -18.09375 11.4375 -18.09375 L 8.078125 -18.09375 L 8.078125 -11.546875 Z M 11.4375 -11.546875 "/></g></g></g><g fill="#ffffff" fill-opacity="1"><g transform="translate(127.030625, 306.736329)"><g><path d="M 1.375 -10 L 4.203125 -10 C 5.523438 -10 6.484375 -9.800781 7.078125 -9.40625 C 7.671875 -9.007812 7.96875 -8.378906 7.96875 -7.515625 C 7.96875 -6.921875 7.800781 -6.429688 7.46875 -6.046875 C 7.132812 -5.660156 6.648438 -5.414062 6.015625 -5.3125 L 6.015625 -5.234375 C 7.535156 -4.972656 8.296875 -4.175781 8.296875 -2.84375 C 8.296875 -1.945312 7.992188 -1.25 7.390625 -0.75 C 6.785156 -0.25 5.941406 0 4.859375 0 L 1.375 0 Z M 2.53125 -5.71875 L 4.453125 -5.71875 C 5.273438 -5.71875 5.863281 -5.84375 6.21875 -6.09375 C 6.582031 -6.351562 6.765625 -6.789062 6.765625 -7.40625 C 6.765625 -7.96875 6.5625 -8.367188 6.15625 -8.609375 C 5.757812 -8.859375 5.125 -8.984375 4.25 -8.984375 L 2.53125 -8.984375 Z M 2.53125 -4.734375 L 2.53125 -0.984375 L 4.625 -0.984375 C 5.425781 -0.984375 6.03125 -1.140625 6.4375 -1.453125 C 6.851562 -1.765625 7.0625 -2.253906 7.0625 -2.921875 C 7.0625 -3.546875 6.847656 -4.003906 6.421875 -4.296875 C 6.003906 -4.585938 5.375 -4.734375 4.53125 -4.734375 Z M 2.53125 -4.734375 "/></g></g></g><g fill="#ffffff" fill-opacity="1"><g transform="translate(136.096851, 306.736329)"><g><path d="M 4.375 0.140625 C 3.257812 0.140625 2.378906 -0.195312 1.734375 -0.875 C 1.097656 -1.550781 0.78125 -2.488281 0.78125 -3.6875 C 0.78125 -4.894531 1.078125 -5.851562 1.671875 -6.5625 C 2.273438 -7.269531 3.078125 -7.625 4.078125 -7.625 C 5.015625 -7.625 5.753906 -7.316406 6.296875 -6.703125 C 6.847656 -6.085938 7.125 -5.273438 7.125 -4.265625 L 7.125 -3.546875 L 1.96875 -3.546875 C 1.988281 -2.660156 2.207031 -1.988281 2.625 -1.53125 C 3.050781 -1.082031 3.644531 -0.859375 4.40625 -0.859375 C 5.21875 -0.859375 6.015625 -1.023438 6.796875 -1.359375 L 6.796875 -0.34375 C 6.398438 -0.175781 6.019531 -0.0546875 5.65625 0.015625 C 5.300781 0.0976562 4.875 0.140625 4.375 0.140625 Z M 4.0625 -6.671875 C 3.457031 -6.671875 2.972656 -6.472656 2.609375 -6.078125 C 2.253906 -5.691406 2.046875 -5.15625 1.984375 -4.46875 L 5.90625 -4.46875 C 5.90625 -5.175781 5.742188 -5.71875 5.421875 -6.09375 C 5.109375 -6.476562 4.65625 -6.671875 4.0625 -6.671875 Z M 4.0625 -6.671875 "/></g></g></g><g fill="#ffffff" fill-opacity="1"><g transform="translate(143.94696, 306.736329)"><g><path d="M 6.03125 -2.046875 C 6.03125 -1.347656 5.769531 -0.804688 5.25 -0.421875 C 4.738281 -0.046875 4.007812 0.140625 3.0625 0.140625 C 2.070312 0.140625 1.300781 -0.015625 0.75 -0.328125 L 0.75 -1.390625 C 1.101562 -1.203125 1.484375 -1.054688 1.890625 -0.953125 C 2.304688 -0.847656 2.707031 -0.796875 3.09375 -0.796875 C 3.6875 -0.796875 4.140625 -0.890625 4.453125 -1.078125 C 4.773438 -1.273438 4.9375 -1.566406 4.9375 -1.953125 C 4.9375 -2.242188 4.8125 -2.492188 4.5625 -2.703125 C 4.3125 -2.910156 3.816406 -3.15625 3.078125 -3.4375 C 2.378906 -3.695312 1.882812 -3.921875 1.59375 -4.109375 C 1.300781 -4.304688 1.082031 -4.523438 0.9375 -4.765625 C 0.789062 -5.015625 0.71875 -5.3125 0.71875 -5.65625 C 0.71875 -6.257812 0.96875 -6.738281 1.46875 -7.09375 C 1.96875 -7.445312 2.648438 -7.625 3.515625 -7.625 C 4.316406 -7.625 5.101562 -7.460938 5.875 -7.140625 L 5.46875 -6.21875 C 4.71875 -6.519531 4.039062 -6.671875 3.4375 -6.671875 C 2.894531 -6.671875 2.488281 -6.585938 2.21875 -6.421875 C 1.945312 -6.253906 1.8125 -6.023438 1.8125 -5.734375 C 1.8125 -5.523438 1.859375 -5.347656 1.953125 -5.203125 C 2.054688 -5.066406 2.222656 -4.9375 2.453125 -4.8125 C 2.679688 -4.6875 3.117188 -4.503906 3.765625 -4.265625 C 4.648438 -3.941406 5.25 -3.613281 5.5625 -3.28125 C 5.875 -2.957031 6.03125 -2.546875 6.03125 -2.046875 Z M 6.03125 -2.046875 "/></g></g></g><g fill="#ffffff" fill-opacity="1"><g transform="translate(150.621943, 306.736329)"><g><path d="M 3.625 -0.796875 C 3.820312 -0.796875 4.015625 -0.8125 4.203125 -0.84375 C 4.390625 -0.875 4.539062 -0.90625 4.65625 -0.9375 L 4.65625 -0.0625 C 4.53125 -0.0078125 4.347656 0.0351562 4.109375 0.078125 C 3.867188 0.117188 3.648438 0.140625 3.453125 0.140625 C 2.003906 0.140625 1.28125 -0.625 1.28125 -2.15625 L 1.28125 -6.609375 L 0.21875 -6.609375 L 0.21875 -7.15625 L 1.28125 -7.625 L 1.765625 -9.234375 L 2.421875 -9.234375 L 2.421875 -7.5 L 4.59375 -7.5 L 4.59375 -6.609375 L 2.421875 -6.609375 L 2.421875 -2.203125 C 2.421875 -1.753906 2.523438 -1.40625 2.734375 -1.15625 C 2.953125 -0.914062 3.25 -0.796875 3.625 -0.796875 Z M 3.625 -0.796875 "/></g></g></g><g fill="#ffffff" fill-opacity="1"><g transform="translate(155.561568, 306.736329)"><g/></g></g><g fill="#ffffff" fill-opacity="1"><g transform="translate(159.196257, 306.736329)"><g><path d="M 8.921875 -10 L 8.921875 -3.53125 C 8.921875 -2.382812 8.578125 -1.484375 7.890625 -0.828125 C 7.203125 -0.179688 6.253906 0.140625 5.046875 0.140625 C 3.847656 0.140625 2.914062 -0.1875 2.25 -0.84375 C 1.59375 -1.5 1.265625 -2.40625 1.265625 -3.5625 L 1.265625 -10 L 2.4375 -10 L 2.4375 -3.46875 C 2.4375 -2.632812 2.660156 -1.992188 3.109375 -1.546875 C 3.566406 -1.097656 4.238281 -0.875 5.125 -0.875 C 5.96875 -0.875 6.617188 -1.097656 7.078125 -1.546875 C 7.535156 -2.003906 7.765625 -2.648438 7.765625 -3.484375 L 7.765625 -10 Z M 8.921875 -10 "/></g></g></g><g fill="#ffffff" fill-opacity="1"><g transform="translate(169.382951, 306.736329)"><g><path d="M 6.328125 0 L 6.328125 -4.84375 C 6.328125 -5.457031 6.1875 -5.914062 5.90625 -6.21875 C 5.632812 -6.519531 5.203125 -6.671875 4.609375 -6.671875 C 3.828125 -6.671875 3.253906 -6.457031 2.890625 -6.03125 C 2.523438 -5.601562 2.34375 -4.90625 2.34375 -3.9375 L 2.34375 0 L 1.203125 0 L 1.203125 -7.5 L 2.125 -7.5 L 2.3125 -6.46875 L 2.359375 -6.46875 C 2.597656 -6.832031 2.925781 -7.113281 3.34375 -7.3125 C 3.757812 -7.519531 4.226562 -7.625 4.75 -7.625 C 5.644531 -7.625 6.320312 -7.40625 6.78125 -6.96875 C 7.238281 -6.539062 7.46875 -5.847656 7.46875 -4.890625 L 7.46875 0 Z M 6.328125 0 "/></g></g></g><g fill="#ffffff" fill-opacity="1"><g transform="translate(177.970929, 306.736329)"><g><path d="M 2.34375 0 L 1.203125 0 L 1.203125 -7.5 L 2.34375 -7.5 Z M 1.109375 -9.515625 C 1.109375 -9.773438 1.171875 -9.96875 1.296875 -10.09375 C 1.421875 -10.21875 1.582031 -10.28125 1.78125 -10.28125 C 1.957031 -10.28125 2.113281 -10.21875 2.25 -10.09375 C 2.382812 -9.96875 2.453125 -9.773438 2.453125 -9.515625 C 2.453125 -9.265625 2.382812 -9.078125 2.25 -8.953125 C 2.113281 -8.828125 1.957031 -8.765625 1.78125 -8.765625 C 1.582031 -8.765625 1.421875 -8.828125 1.296875 -8.953125 C 1.171875 -9.078125 1.109375 -9.265625 1.109375 -9.515625 Z M 1.109375 -9.515625 "/></g></g></g><g fill="#ffffff" fill-opacity="1"><g transform="translate(181.509968, 306.736329)"><g><path d="M 2.328125 -3.828125 C 2.523438 -4.109375 2.820312 -4.472656 3.21875 -4.921875 L 5.640625 -7.5 L 6.984375 -7.5 L 3.953125 -4.296875 L 7.203125 0 L 5.828125 0 L 3.171875 -3.546875 L 2.328125 -2.796875 L 2.328125 0 L 1.203125 0 L 1.203125 -10.640625 L 2.328125 -10.640625 L 2.328125 -5 C 2.328125 -4.75 2.304688 -4.359375 2.265625 -3.828125 Z M 2.328125 -3.828125 "/></g></g></g><g fill="#ffffff" fill-opacity="1"><g transform="translate(188.8545, 306.736329)"><g/></g></g><g fill="#ffffff" fill-opacity="1"><g transform="translate(192.489189, 306.736329)"><g><path d="M 5.796875 0 L 2.40625 -8.859375 L 2.359375 -8.859375 C 2.421875 -8.160156 2.453125 -7.328125 2.453125 -6.359375 L 2.453125 0 L 1.375 0 L 1.375 -10 L 3.125 -10 L 6.296875 -1.75 L 6.34375 -1.75 L 9.53125 -10 L 11.265625 -10 L 11.265625 0 L 10.109375 0 L 10.109375 -6.4375 C 10.109375 -7.175781 10.140625 -7.976562 10.203125 -8.84375 L 10.15625 -8.84375 L 6.734375 0 Z M 5.796875 0 "/></g></g></g><g fill="#ffffff" fill-opacity="1"><g transform="translate(205.121783, 306.736329)"><g><path d="M 7.671875 -3.75 C 7.671875 -2.53125 7.363281 -1.578125 6.75 -0.890625 C 6.132812 -0.203125 5.285156 0.140625 4.203125 0.140625 C 3.523438 0.140625 2.925781 -0.015625 2.40625 -0.328125 C 1.894531 -0.648438 1.492188 -1.101562 1.203125 -1.6875 C 0.921875 -2.28125 0.78125 -2.96875 0.78125 -3.75 C 0.78125 -4.96875 1.085938 -5.914062 1.703125 -6.59375 C 2.316406 -7.28125 3.164062 -7.625 4.25 -7.625 C 5.289062 -7.625 6.117188 -7.273438 6.734375 -6.578125 C 7.359375 -5.878906 7.671875 -4.9375 7.671875 -3.75 Z M 1.96875 -3.75 C 1.96875 -2.789062 2.15625 -2.0625 2.53125 -1.5625 C 2.914062 -1.0625 3.476562 -0.8125 4.21875 -0.8125 C 4.96875 -0.8125 5.535156 -1.0625 5.921875 -1.5625 C 6.304688 -2.0625 6.5 -2.789062 6.5 -3.75 C 6.5 -4.707031 6.304688 -5.429688 5.921875 -5.921875 C 5.535156 -6.421875 4.96875 -6.671875 4.21875 -6.671875 C 3.46875 -6.671875 2.90625 -6.425781 2.53125 -5.9375 C 2.15625 -5.445312 1.96875 -4.71875 1.96875 -3.75 Z M 1.96875 -3.75 "/></g></g></g><g fill="#ffffff" fill-opacity="1"><g transform="translate(213.573118, 306.736329)"><g><path d="M 10.75 0 L 10.75 -4.875 C 10.75 -5.46875 10.617188 -5.914062 10.359375 -6.21875 C 10.109375 -6.519531 9.71875 -6.671875 9.1875 -6.671875 C 8.476562 -6.671875 7.953125 -6.46875 7.609375 -6.0625 C 7.273438 -5.65625 7.109375 -5.03125 7.109375 -4.1875 L 7.109375 0 L 5.96875 0 L 5.96875 -4.875 C 5.96875 -5.46875 5.835938 -5.914062 5.578125 -6.21875 C 5.328125 -6.519531 4.929688 -6.671875 4.390625 -6.671875 C 3.679688 -6.671875 3.160156 -6.457031 2.828125 -6.03125 C 2.503906 -5.601562 2.34375 -4.90625 2.34375 -3.9375 L 2.34375 0 L 1.203125 0 L 1.203125 -7.5 L 2.125 -7.5 L 2.3125 -6.46875 L 2.359375 -6.46875 C 2.578125 -6.832031 2.878906 -7.113281 3.265625 -7.3125 C 3.660156 -7.519531 4.097656 -7.625 4.578125 -7.625 C 5.753906 -7.625 6.519531 -7.203125 6.875 -6.359375 L 6.9375 -6.359375 C 7.15625 -6.753906 7.472656 -7.0625 7.890625 -7.28125 C 8.316406 -7.507812 8.804688 -7.625 9.359375 -7.625 C 10.203125 -7.625 10.832031 -7.40625 11.25 -6.96875 C 11.675781 -6.539062 11.890625 -5.847656 11.890625 -4.890625 L 11.890625 0 Z M 10.75 0 "/></g></g></g><g fill="#ffffff" fill-opacity="1"><g transform="translate(226.588312, 306.736329)"><g><path d="M 4.375 0.140625 C 3.257812 0.140625 2.378906 -0.195312 1.734375 -0.875 C 1.097656 -1.550781 0.78125 -2.488281 0.78125 -3.6875 C 0.78125 -4.894531 1.078125 -5.851562 1.671875 -6.5625 C 2.273438 -7.269531 3.078125 -7.625 4.078125 -7.625 C 5.015625 -7.625 5.753906 -7.316406 6.296875 -6.703125 C 6.847656 -6.085938 7.125 -5.273438 7.125 -4.265625 L 7.125 -3.546875 L 1.96875 -3.546875 C 1.988281 -2.660156 2.207031 -1.988281 2.625 -1.53125 C 3.050781 -1.082031 3.644531 -0.859375 4.40625 -0.859375 C 5.21875 -0.859375 6.015625 -1.023438 6.796875 -1.359375 L 6.796875 -0.34375 C 6.398438 -0.175781 6.019531 -0.0546875 5.65625 0.015625 C 5.300781 0.0976562 4.875 0.140625 4.375 0.140625 Z M 4.0625 -6.671875 C 3.457031 -6.671875 2.972656 -6.472656 2.609375 -6.078125 C 2.253906 -5.691406 2.046875 -5.15625 1.984375 -4.46875 L 5.90625 -4.46875 C 5.90625 -5.175781 5.742188 -5.71875 5.421875 -6.09375 C 5.109375 -6.476562 4.65625 -6.671875 4.0625 -6.671875 Z M 4.0625 -6.671875 "/></g></g></g><g fill="#ffffff" fill-opacity="1"><g transform="translate(234.43842, 306.736329)"><g><path d="M 6.328125 0 L 6.328125 -4.84375 C 6.328125 -5.457031 6.1875 -5.914062 5.90625 -6.21875 C 5.632812 -6.519531 5.203125 -6.671875 4.609375 -6.671875 C 3.828125 -6.671875 3.253906 -6.457031 2.890625 -6.03125 C 2.523438 -5.601562 2.34375 -4.90625 2.34375 -3.9375 L 2.34375 0 L 1.203125 0 L 1.203125 -7.5 L 2.125 -7.5 L 2.3125 -6.46875 L 2.359375 -6.46875 C 2.597656 -6.832031 2.925781 -7.113281 3.34375 -7.3125 C 3.757812 -7.519531 4.226562 -7.625 4.75 -7.625 C 5.644531 -7.625 6.320312 -7.40625 6.78125 -6.96875 C 7.238281 -6.539062 7.46875 -5.847656 7.46875 -4.890625 L 7.46875 0 Z M 6.328125 0 "/></g></g></g><g fill="#ffffff" fill-opacity="1"><g transform="translate(243.026398, 306.736329)"><g><path d="M 3.625 -0.796875 C 3.820312 -0.796875 4.015625 -0.8125 4.203125 -0.84375 C 4.390625 -0.875 4.539062 -0.90625 4.65625 -0.9375 L 4.65625 -0.0625 C 4.53125 -0.0078125 4.347656 0.0351562 4.109375 0.078125 C 3.867188 0.117188 3.648438 0.140625 3.453125 0.140625 C 2.003906 0.140625 1.28125 -0.625 1.28125 -2.15625 L 1.28125 -6.609375 L 0.21875 -6.609375 L 0.21875 -7.15625 L 1.28125 -7.625 L 1.765625 -9.234375 L 2.421875 -9.234375 L 2.421875 -7.5 L 4.59375 -7.5 L 4.59375 -6.609375 L 2.421875 -6.609375 L 2.421875 -2.203125 C 2.421875 -1.753906 2.523438 -1.40625 2.734375 -1.15625 C 2.953125 -0.914062 3.25 -0.796875 3.625 -0.796875 Z M 3.625 -0.796875 "/></g></g></g></svg>